<svg width="13" height="15" viewBox="0 0 13 15" fill="none" xmlns="http://www.w3.org/2000/svg">
<path d="M4.06641 0.742188C4.20312 0.441406 4.50391 0.25 4.83203 0.25H8.14062C8.46875 0.25 8.76953 0.441406 8.90625 0.742188L9.125 1.125H11.75C12.2148 1.125 12.625 1.53516 12.625 2C12.625 2.49219 12.2148 2.875 11.75 2.875H1.25C0.757812 2.875 0.375 2.49219 0.375 2C0.375 1.53516 0.757812 1.125 1.25 1.125H3.875L4.06641 0.742188ZM11.1484 13.0195C11.1211 13.7305 10.5469 14.25 9.83594 14.25H3.13672C2.42578 14.25 1.85156 13.7305 1.82422 13.0195L1.22266 3.75H11.75L11.1484 13.0195Z" fill="#26B7CD"/>
</svg>
