<svg width="15" height="15" viewBox="0 0 15 15" fill="none" xmlns="http://www.w3.org/2000/svg">
<path d="M10.3984 0.796875C11.082 0.113281 12.2031 0.113281 12.8867 0.796875L13.9531 1.86328C14.6367 2.54688 14.6367 3.66797 13.9531 4.35156L12.6406 5.66406L9.08594 2.10938L10.3984 0.796875ZM12.0117 6.29297L5.64062 12.6641C5.36719 12.9375 5.01172 13.1562 4.62891 13.2656L1.32031 14.2227C1.10156 14.3047 0.855469 14.25 0.691406 14.0586C0.5 13.8945 0.445312 13.6484 0.5 13.4297L1.48438 10.1211C1.59375 9.73828 1.8125 9.38281 2.08594 9.10938L8.45703 2.73828L12.0117 6.29297Z" fill="#26B7CD"/>
</svg>
