<svg width="26" height="26" viewBox="0 0 26 26" fill="none" xmlns="http://www.w3.org/2000/svg">
<circle cx="13" cy="13" r="9.5" fill="white" stroke="#26B7CD"/>
<path d="M18.8359 9.89062C18.9818 10.0365 19.0547 10.2135 19.0547 10.4219C19.0547 10.6302 18.9818 10.8073 18.8359 10.9531L13.1797 16.6094L12.1172 17.6719C11.9714 17.8177 11.7943 17.8906 11.5859 17.8906C11.3776 17.8906 11.2005 17.8177 11.0547 17.6719L9.99219 16.6094L7.16406 13.7812C7.01823 13.6354 6.94531 13.4583 6.94531 13.25C6.94531 13.0417 7.01823 12.8646 7.16406 12.7187L8.22656 11.6562C8.3724 11.5104 8.54948 11.4375 8.75781 11.4375C8.96615 11.4375 9.14323 11.5104 9.28906 11.6562L11.5859 13.9609L16.7109 8.82812C16.8568 8.68229 17.0339 8.60937 17.2422 8.60937C17.4505 8.60937 17.6276 8.68229 17.7734 8.82812L18.8359 9.89062Z" fill="#26B7CD"/>
</svg>
